<svg xmlns="http://www.w3.org/2000/svg" xmlns:xlink="http://www.w3.org/1999/xlink" width="500" zoomAndPan="magnify" viewBox="0 0 375 374.999991" height="500" preserveAspectRatio="xMidYMid meet" version="1.0"><defs><g/></defs><rect x="-37.5" width="450" fill="#ffffff" y="-37.499999" height="449.999989" fill-opacity="1"/><rect x="-37.5" width="450" fill="#27272a" y="-37.499999" height="449.999989" fill-opacity="1"/><g fill="#fafafa" fill-opacity="1"><g transform="translate(13.049387, 161.785578)"><g><path d="M 68.953125 -94.808594 C 80.328125 -94.808594 92.050781 -90.152344 97.738281 -77.742188 L 126.179688 -77.742188 C 118.078125 -102.046875 94.808594 -118.941406 68.953125 -118.941406 C 35.855469 -118.941406 8.617188 -91.707031 8.617188 -58.609375 C 8.617188 -25.511719 35.855469 1.722656 68.953125 1.722656 C 102.390625 1.722656 129.109375 -25.339844 129.109375 -58.609375 L 129.109375 -62.574219 L 71.363281 -62.574219 L 71.363281 -43.09375 L 101.1875 -43.09375 C 94.808594 -25.339844 80.328125 -21.71875 68.953125 -21.71875 C 50.335938 -21.71875 34.820312 -38.441406 34.820312 -58.265625 C 34.820312 -78.085938 50.335938 -94.808594 68.953125 -94.808594 Z M 68.953125 -94.808594 "/></g></g></g><g fill="#fafafa" fill-opacity="1"><g transform="translate(148.184734, 161.785578)"><g><path d="M 36.199219 -41.886719 L 36.371094 -41.886719 L 64.296875 0 L 97.050781 0 L 63.433594 -43.09375 C 78.257812 -46.714844 90.152344 -59.816406 90.152344 -79.636719 C 90.152344 -101.875 73.261719 -117.21875 54.300781 -117.21875 L 10.34375 -117.21875 L 10.34375 0 L 36.199219 0 Z M 49.988281 -96.875 C 57.574219 -96.875 65.503906 -90.324219 65.503906 -79.636719 C 65.503906 -68.433594 57.574219 -62.226562 49.988281 -62.226562 L 36.199219 -62.226562 L 36.199219 -96.875 Z M 49.988281 -96.875 "/></g></g></g><g fill="#fafafa" fill-opacity="1"><g transform="translate(243.158681, 161.785578)"><g><path d="M 74.121094 -44.816406 L 44.472656 -44.816406 L 59.296875 -86.535156 Z M 117.90625 0 L 70.332031 -117.21875 L 48.4375 -117.21875 L 0.863281 0 L 28.613281 0 L 37.0625 -23.617188 L 81.707031 -23.617188 L 90.152344 0 Z M 117.90625 0 "/></g></g></g><g fill="#fafafa" fill-opacity="1"><g transform="translate(70.516861, 333.865351)"><g><path d="M 117.90625 -117.21875 L 89.980469 -117.21875 L 65.675781 -51.367188 L 59.296875 -32.925781 L 52.921875 -51.367188 L 28.789062 -117.21875 L 0.863281 -117.21875 L 48.265625 0 L 70.503906 0 Z M 117.90625 -117.21875 "/></g></g></g><g fill="#fafafa" fill-opacity="1"><g transform="translate(189.277391, 333.865351)"><g><path d="M 44.644531 0 L 70.503906 0 L 70.503906 -56.023438 L 113.769531 -117.21875 L 82.914062 -117.21875 L 57.574219 -76.707031 L 32.234375 -117.21875 L 1.378906 -117.21875 L 44.644531 -56.023438 Z M 44.644531 0 "/></g></g></g></svg>