<svg width="1001" height="609" viewBox="0 0 1001 609" fill="none" xmlns="http://www.w3.org/2000/svg">
<g filter="url(#filter0_d_3_54)">
<path d="M92.5135 347.49C92.2896 347.49 92.0187 347.433 91.701 347.324C91.3781 347.209 91.0031 347.157 90.576 347.157C89.076 347.157 87.9979 346.511 87.3469 345.22C86.4823 343.72 85.6229 342.438 84.7635 341.365C83.9146 340.282 82.951 339.209 81.8677 338.136C80.7948 337.068 79.8885 335.886 79.1385 334.595C78.3885 333.303 77.6854 332.011 77.0344 330.72C76.3937 329.652 76.076 328.584 76.076 327.511V324.282C76.076 323.214 76.0187 322.089 75.9094 320.907C75.7948 319.714 75.6385 318.584 75.4302 317.511C74.9979 315.792 74.6229 313.964 74.3052 312.032C73.9823 310.105 73.6073 308.277 73.1802 306.553C73.1802 306.126 73.1229 305.647 73.0135 305.115C72.899 304.574 72.8469 304.089 72.8469 303.657C72.6385 301.298 72.3156 298.881 71.8885 296.407C71.4562 293.938 71.024 291.522 70.5969 289.157C69.9562 284.855 69.2531 280.61 68.4927 276.428C67.7427 272.235 67.0448 268.095 66.4094 264.011L64.4719 253.365C64.2635 251.657 63.6177 249.834 62.5344 247.886C61.2427 245.527 60.2739 242.949 59.6385 240.157C59.4146 238.865 59.0864 237.631 58.6594 236.449C58.2427 235.272 57.8156 234.032 57.3885 232.74C56.7323 230.605 56.0812 228.459 55.4302 226.303C54.7896 224.152 54.2531 222.006 53.826 219.865C53.6177 218.147 53.2948 216.423 52.8677 214.699C52.4354 212.98 52.0031 211.261 51.576 209.553L49.6385 200.845C49.6385 200.417 49.5344 200.089 49.326 199.865C49.1021 196.865 48.6698 193.813 48.0344 190.699C47.3937 187.574 46.7479 184.511 46.0969 181.511C45.8885 179.792 45.6177 177.693 45.2844 175.22C44.9614 172.751 44.9146 170.761 45.1385 169.261V166.032C45.5656 163.032 46.5344 160.24 48.0344 157.657C49.7531 154.647 52.5448 152.282 56.4094 150.574C57.4927 150.147 58.5656 149.824 59.6385 149.615C60.7062 149.397 61.6698 149.173 62.5344 148.949C64.8937 148.74 67.1489 149.011 69.3052 149.761C71.4562 150.511 73.6021 151.532 75.7427 152.824C76.3937 153.256 76.9354 153.792 77.3677 154.428C78.0031 155.511 78.701 156.589 79.451 157.657C80.2114 158.73 80.701 159.907 80.9094 161.199C81.3364 162.49 81.8156 163.782 82.3469 165.074C82.8885 166.355 83.4823 167.532 84.1385 168.615C85.2062 170.772 85.9562 173.027 86.3885 175.386C86.8156 177.751 87.2479 180.11 87.6802 182.47C88.3156 185.693 88.6385 189.131 88.6385 192.782V194.386C89.0656 196.542 89.2844 198.636 89.2844 200.678C89.2844 202.72 89.2844 204.818 89.2844 206.97C89.5031 210.402 89.8312 213.782 90.2635 217.115C90.6906 220.449 91.1177 223.943 91.5344 227.595L93.4719 242.74V243.386C93.8989 245.751 94.3885 248.167 94.9302 250.636C95.4719 253.11 95.8469 255.527 96.0552 257.886C96.6906 261.542 97.3885 265.251 98.1385 269.011C98.8989 272.761 99.4979 276.464 99.9302 280.115L101.868 293.657C102.284 295.813 102.649 297.964 102.972 300.115C103.305 302.256 103.685 304.402 104.118 306.553C104.545 308.709 104.92 310.803 105.243 312.845C105.56 314.886 105.935 316.98 106.368 319.115C106.586 319.98 106.748 320.792 106.847 321.553C106.956 322.303 107.014 323.105 107.014 323.949C107.232 327.173 106.701 330.292 105.409 333.303C105.185 334.167 104.644 335.027 103.784 335.886C102.92 337.178 102.17 338.042 101.534 338.47C99.8104 340.178 98.5187 342.006 97.6594 343.949C97.6594 344.157 97.4979 344.475 97.1802 344.907C96.8573 345.334 96.4823 345.766 96.0552 346.199C95.1906 347.058 94.0135 347.49 92.5135 347.49Z" fill="#FEF08A"/>
<path d="M187.905 343.949C185.114 344.584 182.207 344.37 179.197 343.303C178.348 343.084 177.655 342.756 177.114 342.324C176.572 341.897 175.978 341.464 175.343 341.032C173.843 339.964 172.66 338.355 171.801 336.199L170.509 332.011C170.509 331.584 170.452 331.209 170.343 330.886C170.228 330.568 170.176 330.298 170.176 330.074C170.176 327.074 169.957 324.126 169.53 321.219C169.098 318.318 168.666 315.469 168.239 312.678C167.822 310.527 167.447 308.381 167.114 306.24C166.791 304.089 166.416 301.938 165.989 299.782C165.989 299.355 165.931 299.032 165.822 298.824C165.723 298.605 165.676 298.386 165.676 298.178C165.244 295.594 164.812 293.022 164.384 290.449C163.952 287.865 163.52 285.397 163.093 283.032C162.869 281.74 162.702 280.449 162.593 279.157C162.494 277.865 162.228 276.574 161.801 275.282L159.864 261.115C159.655 259.188 159.384 257.199 159.051 255.157C158.728 253.115 158.353 251.022 157.926 248.865C157.718 246.714 157.395 244.615 156.968 242.574C156.535 240.532 156.103 238.548 155.676 236.615L150.843 215.344C150.41 212.985 149.978 210.626 149.551 208.261C149.119 205.886 148.582 203.631 147.947 201.49C147.291 199.563 146.749 197.574 146.322 195.532C145.905 193.49 145.265 191.501 144.405 189.553L144.072 188.282C143.431 185.48 142.624 182.792 141.655 180.219C140.697 177.636 139.676 175.053 138.593 172.469C138.593 172.261 138.535 172.11 138.426 172.011C138.327 171.902 138.28 171.844 138.28 171.844C137.848 170.553 137.093 170.126 136.009 170.553C135.801 170.761 135.478 170.865 135.051 170.865C134.187 171.089 133.384 171.417 132.634 171.844C131.884 172.261 131.077 172.688 130.218 173.115C128.062 173.772 126.239 174.74 124.739 176.032L116.03 182.157C114.749 182.798 113.624 183.657 112.655 184.74C111.681 185.813 110.765 186.881 109.905 187.949C109.265 188.813 108.947 189.777 108.947 190.844L107.989 196.657C107.765 198.798 107.541 201.053 107.322 203.428C107.114 205.792 106.905 208.152 106.697 210.511C106.473 212.667 106.202 214.657 105.884 216.49C105.562 218.313 105.405 220.292 105.405 222.428C105.405 224.152 105.077 225.98 104.426 227.907C103.785 230.272 102.176 231.777 99.5928 232.428C97.6605 232.636 96.0511 231.99 94.7594 230.49C93.6865 229.423 92.9365 227.813 92.5094 225.657C92.3011 224.157 92.0824 222.761 91.8636 221.469C91.6553 220.178 91.5511 218.782 91.5511 217.282V207.615C91.5511 205.673 91.4938 203.844 91.3844 202.136C91.2699 200.417 91.3271 198.803 91.5511 197.303C91.5511 193.652 90.6865 190.105 88.9678 186.657L84.1344 176.678C83.2699 174.959 82.5146 172.647 81.8636 169.74C81.223 166.839 80.9053 164.423 80.9053 162.49C81.3324 157.548 83.1605 153.464 86.3844 150.24C89.1761 147.449 92.3949 145.626 96.0511 144.761C97.3428 144.334 99.0615 143.902 101.218 143.469L118.301 140.574C120.009 140.355 121.666 140.084 123.28 139.761C124.89 139.443 126.452 139.178 127.968 138.969C131.187 138.542 134.457 138.11 137.78 137.678C141.114 137.251 144.499 136.923 147.947 136.699C149.874 136.49 151.806 136.282 153.739 136.074C155.681 135.855 157.619 135.631 159.551 135.407H160.843C162.77 135.199 164.645 135.042 166.468 134.928C168.301 134.818 170.181 134.657 172.114 134.449C173.181 134.24 174.249 134.136 175.322 134.136C176.405 134.136 177.374 134.027 178.239 133.803C178.457 133.594 178.89 133.49 179.53 133.49L191.447 132.511C193.806 132.303 196.114 132.094 198.364 131.886C200.624 131.667 202.947 131.443 205.322 131.219C207.249 131.011 209.181 130.751 211.114 130.428C213.041 130.094 214.973 129.506 216.905 128.657C218.848 127.798 220.843 127.527 222.884 127.844C224.926 128.167 226.801 128.756 228.509 129.615C229.16 129.824 229.749 130.199 230.28 130.74C230.822 131.282 231.306 131.772 231.739 132.199C232.806 133.272 233.66 134.506 234.301 135.907C234.952 137.298 235.603 138.636 236.259 139.928C236.895 141.219 236.895 142.511 236.259 143.803C235.827 144.667 235.556 145.584 235.447 146.553C235.332 147.511 235.176 148.527 234.968 149.594C234.968 150.667 234.64 151.527 233.989 152.178C233.556 152.386 233.124 152.709 232.697 153.136C232.28 153.568 231.853 154.001 231.426 154.428C230.77 154.652 230.124 155.298 229.489 156.365C228.197 158.089 226.369 158.949 224.009 158.949C223.145 158.949 222.343 159.063 221.593 159.282C220.843 159.49 220.035 159.699 219.176 159.907C217.244 160.339 215.952 160.985 215.301 161.844C214.228 162.917 213.051 163.449 211.759 163.449C210.259 163.881 209.077 163.449 208.218 162.157C207.994 161.522 207.452 161.199 206.593 161.199C205.744 161.423 204.832 161.532 203.864 161.532C202.89 161.532 201.973 161.532 201.114 161.532C200.265 161.74 199.353 161.844 198.384 161.844C197.41 161.844 196.39 161.949 195.322 162.157C194.457 162.157 193.702 162.214 193.051 162.324C192.41 162.438 191.66 162.49 190.801 162.49C188.66 162.699 186.457 162.917 184.197 163.136C181.947 163.344 179.64 163.563 177.28 163.782C175.989 163.782 175.015 163.886 174.364 164.094C173.515 164.527 173.093 165.173 173.093 166.032C172.869 166.897 172.869 167.969 173.093 169.261L175.009 179.24C175.437 181.188 175.869 183.178 176.301 185.219C176.728 187.261 177.16 189.355 177.593 191.49L178.572 198.594C178.572 199.443 178.619 200.251 178.718 201.011C178.827 201.761 178.989 202.568 179.197 203.428C179.624 206.001 180.114 208.574 180.655 211.157C181.197 213.74 181.572 216.318 181.78 218.886L182.114 220.178C182.973 222.969 183.614 225.761 184.03 228.553C184.457 231.344 184.89 234.251 185.322 237.261C185.749 239.193 186.181 241.178 186.614 243.219C187.041 245.261 187.369 247.251 187.593 249.178C187.801 250.693 188.009 252.152 188.218 253.553C188.437 254.943 188.66 256.386 188.884 257.886V259.49C189.093 261.214 189.353 262.881 189.676 264.49C189.994 266.105 190.265 267.772 190.489 269.49L191.447 279.157C191.666 280.657 191.884 282.167 192.093 283.678C192.312 285.178 192.53 286.792 192.739 288.511C192.739 288.943 192.791 289.428 192.905 289.969C193.015 290.501 193.072 290.98 193.072 291.407C193.072 292.48 193.176 293.605 193.384 294.782C193.603 295.964 193.822 297.199 194.03 298.49C194.457 300.855 194.89 303.272 195.322 305.74C195.749 308.214 196.181 310.74 196.614 313.324C196.822 314.824 197.14 316.277 197.572 317.678C197.999 319.068 198.327 320.522 198.551 322.032C198.759 323.105 199.395 324.173 200.468 325.24C201.327 325.897 201.541 326.652 201.114 327.511C200.473 328.36 200.098 329.324 199.989 330.407C199.89 331.48 199.728 332.548 199.509 333.615C199.509 334.48 199.405 335.126 199.197 335.553C199.197 336.636 198.765 337.397 197.905 337.824C197.041 338.256 196.181 339.11 195.322 340.386C194.249 341.469 193.39 342.23 192.739 342.657C192.098 343.298 191.239 343.615 190.155 343.615C189.723 343.407 188.973 343.522 187.905 343.949Z" fill="#FEF08A"/>
<path d="M261.387 386.157C259.663 385.725 258.48 384.761 257.845 383.261C257.413 381.537 256.98 379.928 256.553 378.428C256.121 376.928 255.907 375.417 255.907 373.907V371.969C256.126 369.829 256.022 367.74 255.595 365.699C255.163 363.657 254.835 361.558 254.616 359.407C254.616 358.542 254.512 357.897 254.303 357.469L250.762 350.699C250.329 350.266 249.684 349.412 248.824 348.136C248.168 346.62 247.47 345.272 246.72 344.094C245.97 342.917 245.163 341.678 244.303 340.386C243.871 339.527 243.329 338.777 242.678 338.136C242.038 337.501 241.397 336.751 240.762 335.886C240.329 335.235 239.897 334.485 239.47 333.636C239.038 332.777 238.392 332.022 237.532 331.365L236.574 329.761C235.71 328.261 234.907 326.865 234.157 325.574C233.407 324.282 232.704 322.99 232.053 321.699L231.095 319.761C230.23 316.969 229.314 314.292 228.345 311.719C227.387 309.136 226.366 306.449 225.282 303.657C224.642 301.938 224.053 300.324 223.512 298.824C222.98 297.313 222.288 295.803 221.428 294.303C219.913 291.084 218.949 287.647 218.532 283.99C218.309 281.407 218.517 278.719 219.157 275.928C219.809 274.219 220.782 272.719 222.074 271.428C226.157 267.985 230.663 266.693 235.595 267.553L239.157 268.199C241.725 269.272 243.553 270.777 244.637 272.719C245.496 274.219 246.246 275.777 246.887 277.386C247.522 279.001 247.954 280.772 248.178 282.699C248.605 283.99 249.038 285.339 249.47 286.74C249.897 288.131 250.434 289.574 251.074 291.074C252.142 293.449 253.324 295.818 254.616 298.178C255.699 300.11 256.991 301.719 258.491 303.011C259.559 303.876 260.741 304.839 262.032 305.907C263.324 306.98 264.501 308.053 265.574 309.136L272.345 315.907C272.772 316.115 273.147 316.438 273.47 316.865C273.788 317.298 274.059 317.73 274.282 318.157C274.918 318.589 275.668 318.693 276.532 318.469C278.684 317.834 280.835 316.652 282.991 314.928C286.418 312.136 289.21 309.24 291.366 306.24C293.501 303.23 294.897 299.678 295.553 295.594C295.98 291.943 294.907 288.719 292.324 285.928C291.892 285.068 291.246 284.532 290.387 284.324C288.887 283.464 287.434 282.657 286.032 281.907C284.642 281.147 283.085 280.548 281.366 280.115C279.642 279.48 278.142 278.511 276.866 277.219C276.001 276.152 274.71 275.506 272.991 275.282C271.491 274.855 270.095 274.318 268.803 273.678C267.512 273.042 266.329 272.292 265.262 271.428C263.97 270.344 262.678 269.428 261.387 268.678C260.095 267.928 258.803 267.126 257.512 266.261C256.23 265.626 254.996 264.876 253.803 264.011C252.621 263.152 251.496 262.292 250.428 261.428C248.928 260.36 247.532 259.235 246.241 258.053C244.949 256.876 243.657 255.74 242.366 254.657C241.501 254.23 240.97 253.798 240.762 253.365C239.689 252.089 238.559 250.86 237.366 249.678C236.184 248.485 235.059 247.136 233.991 245.636C233.35 244.777 232.704 243.969 232.053 243.219C231.413 242.469 230.663 241.667 229.803 240.803C228.939 239.943 228.137 239.032 227.387 238.074C226.637 237.105 226.043 236.084 225.616 235.011L222.72 230.178C221.637 228.027 220.663 225.881 219.803 223.74C218.954 221.589 217.991 219.438 216.907 217.282C216.043 214.923 215.241 212.563 214.491 210.199C213.741 207.824 213.147 205.459 212.72 203.094C212.512 201.376 212.241 199.761 211.907 198.261C211.585 196.761 211.324 195.261 211.116 193.761C210.892 191.386 210.782 189.074 210.782 186.824C210.782 184.563 210.678 182.251 210.47 179.886C210.47 177.094 210.684 174.303 211.116 171.511C211.543 168.719 212.079 165.928 212.72 163.136C213.147 161.417 213.579 159.699 214.012 157.99C214.439 156.272 214.871 154.652 215.303 153.136C215.73 152.068 216.163 151.053 216.595 150.094C217.022 149.126 217.345 148.209 217.553 147.344C219.272 142.834 221.746 138.318 224.97 133.803C226.038 132.303 227.163 130.86 228.345 129.469C229.522 128.068 230.762 126.719 232.053 125.428C233.137 124.36 234.21 123.178 235.282 121.886C236.35 120.594 237.314 119.303 238.178 118.011C240.97 114.36 244.189 111.673 247.845 109.949C251.496 108.022 255.689 107.272 260.428 107.699C266.22 108.563 271.699 110.818 276.866 114.469C278.574 115.761 280.335 117.11 282.157 118.511C283.991 119.902 285.767 121.344 287.491 122.844C291.793 126.292 295.345 130.157 298.137 134.449C299.413 136.381 300.699 138.318 301.991 140.261C303.282 142.193 304.46 144.126 305.532 146.053C306.184 146.917 306.725 147.777 307.157 148.636C307.585 149.501 307.907 150.464 308.116 151.532C308.543 153.464 308.704 155.344 308.595 157.178C308.496 159.001 308.23 160.876 307.803 162.803L306.824 165.386C306.184 166.459 305.538 167.636 304.887 168.928C304.246 170.219 303.605 171.402 302.97 172.469C302.538 173.334 302.053 174.147 301.512 174.907C300.97 175.657 300.48 176.355 300.053 176.99C298.345 179.782 297.491 182.574 297.491 185.365V216.636C297.491 220.928 296.845 225.011 295.553 228.886C295.553 229.094 295.496 229.256 295.387 229.365C295.272 229.48 295.22 229.751 295.22 230.178C295.22 231.251 295.543 232.105 296.199 232.74L299.095 234.678C301.454 236.178 303.657 237.844 305.699 239.678C307.741 241.501 309.835 243.272 311.991 244.99C313.282 246.074 314.46 247.318 315.532 248.719C316.6 250.11 317.564 251.449 318.428 252.74C319.288 253.813 320.038 254.938 320.678 256.115C321.329 257.298 321.975 258.423 322.616 259.49C323.699 261.006 324.501 262.73 325.032 264.657C325.574 266.589 326.059 268.522 326.491 270.449V271.74C326.282 273.256 326.282 274.876 326.491 276.594C326.699 278.303 326.913 280.022 327.137 281.74C327.137 282.173 327.184 282.657 327.282 283.199C327.392 283.73 327.345 284.318 327.137 284.969L326.178 291.719C325.746 292.803 325.954 293.449 326.803 293.657C327.454 293.657 327.782 293.876 327.782 294.303C328.418 294.527 328.522 295.063 328.095 295.907C327.663 296.772 327.126 296.985 326.491 296.553C326.491 296.344 326.387 296.24 326.178 296.24C325.522 296.022 325.095 296.126 324.887 296.553C324.663 297.209 324.496 297.86 324.387 298.511C324.288 299.152 324.241 299.902 324.241 300.761C323.376 302.042 323.163 303.11 323.595 303.969C323.595 304.626 323.48 305.053 323.262 305.261C322.621 305.917 322.407 306.777 322.616 307.844C322.616 308.277 322.293 308.709 321.657 309.136C320.366 309.777 319.397 310.959 318.762 312.678C317.678 315.469 316.434 318.105 315.032 320.574C313.642 323.048 312.095 325.464 310.387 327.824C308.663 330.188 306.887 332.501 305.053 334.761C303.23 337.011 301.142 339.105 298.782 341.032C296.835 342.548 294.788 344.001 292.637 345.386C290.496 346.787 288.246 348.022 285.887 349.094C285.022 349.313 284.163 349.745 283.303 350.386L279.428 352.324C277.72 352.532 276.001 353.391 274.282 354.907L272.345 356.178C271.704 356.829 271.168 357.907 270.741 359.407V368.115C270.741 368.975 270.741 369.829 270.741 370.678C270.741 371.537 270.626 372.397 270.407 373.261C270.199 373.688 270.095 374.225 270.095 374.865C270.095 375.516 269.98 376.058 269.762 376.49C269.553 377.35 269.335 378.261 269.116 379.219C268.907 380.188 268.585 381.209 268.157 382.282C267.085 385.292 264.829 386.584 261.387 386.157ZM281.053 224.365C281.913 224.365 282.449 224.048 282.657 223.407C282.876 222.324 282.934 221.251 282.824 220.178C282.71 219.11 282.553 218.147 282.345 217.282C282.121 216.199 282.012 215.068 282.012 213.886C282.012 212.709 281.907 211.584 281.699 210.511C281.699 209.219 281.585 207.928 281.366 206.636C281.157 205.344 281.157 204.063 281.366 202.782C281.585 202.563 281.642 202.402 281.532 202.303C281.418 202.193 281.366 202.136 281.366 202.136C281.157 200.626 281.053 199.23 281.053 197.949C281.053 196.657 281.053 195.365 281.053 194.074C281.053 189.782 280.189 185.594 278.47 181.511C276.97 178.068 275.413 174.735 273.803 171.511C272.189 168.292 270.522 165.068 268.803 161.844C268.147 160.553 267.335 159.318 266.366 158.136C265.407 156.959 264.392 155.834 263.324 154.761C262.46 153.469 261.282 153.256 259.782 154.115C258.491 154.324 257.095 155.178 255.595 156.678C254.303 158.193 253.116 159.813 252.032 161.532C250.96 163.24 249.996 165.063 249.137 166.99C248.928 167.647 248.71 168.298 248.491 168.949C248.282 169.589 248.064 170.126 247.845 170.553C247.637 172.053 247.475 173.61 247.366 175.219C247.251 176.834 247.199 178.501 247.199 180.219V184.407C247.199 187.407 248.059 190.631 249.782 194.074C251.282 197.298 253.434 200.522 256.241 203.74C256.876 204.605 257.517 205.407 258.157 206.157C258.809 206.907 259.454 207.824 260.095 208.907C262.022 211.48 264.225 213.735 266.699 215.678C269.168 217.61 271.803 219.428 274.595 221.136L279.428 223.719C279.855 223.943 280.178 224.053 280.387 224.053C280.605 224.053 280.829 224.157 281.053 224.365Z" fill="#FEF08A"/>
<path d="M562.716 248.887C561.602 246.101 558.258 244.986 555.466 246.101C546.269 250.283 528.982 253.351 507.519 256.137C506.961 254.741 505.847 253.627 504.17 253.069C501.664 251.955 498.873 253.351 497.758 255.856C497.201 256.413 496.925 256.97 496.644 257.528C483.539 259.205 469.045 260.595 454.269 262.267C434.196 264.22 413.284 266.45 393.492 268.96C390.425 269.241 388.472 272.028 388.753 274.814C389.029 277.601 391.539 279.554 394.05 279.554C394.326 279.554 394.607 279.554 394.888 279.554C414.399 277.043 435.31 274.814 455.383 272.866C467.93 271.47 479.914 270.356 491.071 268.96C466.815 318.028 441.446 356.502 417.19 381.033C394.888 403.897 375.091 413.371 360.873 408.356C349.44 403.897 341.914 389.397 339.685 367.095C336.899 341.168 341.081 306.319 351.951 266.173C367.841 207.627 413.008 115.069 455.102 70.4599C468.206 56.5224 481.591 50.6683 489.675 55.1266C502.498 62.3766 509.466 95.8297 489.951 168.877C489.117 171.663 490.789 174.731 493.576 175.288C496.367 176.121 499.43 174.45 500.269 171.663C525.081 78.5485 507.519 52.8974 494.972 45.9287C481.867 38.6787 464.024 45.0901 447.3 62.9339C404.086 108.934 357.805 203.726 341.638 263.387C319.055 347.022 324.909 406.403 357.248 418.392C391.263 430.939 441.164 384.382 488.279 297.673C482.149 328.345 475.456 363.752 470.159 394.976C465.977 419.231 463.19 439.861 461.519 454.356C459.008 477.772 459.565 483.627 465.138 485.304C465.701 485.58 466.258 485.58 467.091 485.58C472.112 485.58 475.175 478.33 479.081 467.179C480.196 464.392 478.524 461.325 475.737 460.491C474.341 459.934 472.946 459.934 471.555 460.767C475.456 422.575 491.347 331.132 505.847 267.288C529.821 264.22 549.055 260.877 559.93 255.856C562.716 254.741 563.831 251.397 562.716 248.887Z" fill="#C026D3"/>
<path d="M669.773 255.023C666.982 253.627 663.638 254.741 662.523 257.528C630.461 324.996 600.075 359.569 593.383 358.455C592.825 358.174 583.07 348.694 614.57 251.955C615.409 249.444 617.357 243.59 612.898 240.523C608.716 237.179 603.976 240.246 596.169 245.543C587.81 250.84 576.378 258.366 567.456 257.252C595.893 208.184 593.107 197.314 586.69 193.132C576.654 187.278 562.159 204.283 555.466 214.038C541.805 235.226 542.086 254.465 556.581 264.22C571.357 274.538 590.596 261.991 602.023 254.465C602.305 254.184 602.305 254.184 602.581 253.908C591.711 288.2 584.742 315.241 582.232 333.918C579.164 354.549 581.393 365.424 589.2 368.491C590.596 368.767 591.711 369.049 593.107 369.049C615.409 369.049 654.159 300.465 672.279 262.267C673.398 259.481 672.279 256.137 669.773 255.023ZM557.138 235.783C561.044 220.731 574.148 206.788 580.003 203.444C579.445 207.908 576.378 220.45 558.534 251.398C556.581 248.33 555.19 243.59 557.138 235.783Z" fill="#C026D3"/>
<path d="M749.786 256.137C747.275 255.023 743.926 256.137 742.812 258.648C721.624 301.856 705.734 315.517 698.208 314.127C695.14 313.569 685.103 307.71 682.593 258.924C682.593 256.694 680.921 254.741 678.973 254.184C676.739 253.627 674.234 254.184 673.114 256.137C671.442 258.09 669.77 260.319 668.098 262.83C661.129 272.304 651.926 285.132 640.775 297.116C639.103 299.069 637.708 300.184 636.874 300.741C634.921 290.986 645.239 253.627 661.687 241.918C666.426 238.575 672.838 236.064 681.478 246.101C683.431 248.33 686.775 248.611 689.01 246.658C691.239 244.986 691.515 241.361 689.843 239.132C679.249 226.861 669.213 227.142 662.52 229.372C641.056 236.898 626.556 278.163 625.999 297.116C625.723 304.924 627.952 309.944 632.411 311.616C639.385 314.403 646.353 306.877 648.583 304.366C658.062 294.054 666.702 282.903 672.838 274.257C675.905 306.038 683.431 321.929 695.978 324.72C697.093 324.72 698.208 324.997 699.322 324.997C718.28 324.997 738.629 291.819 752.291 263.387C753.687 260.595 752.572 257.528 749.786 256.137Z" fill="#C026D3"/>
<path d="M851.542 257.252C849.312 255.299 845.963 255.58 844.016 257.809C832.583 271.189 817.25 277.882 804.703 274.538C794.391 271.746 786.859 261.71 784.073 246.658C783.516 244.148 781.005 242.476 778.5 242.476C775.99 242.476 773.76 244.429 773.479 246.934C767.625 288.757 734.448 338.658 718.557 343.955C716.604 344.512 716.047 344.236 716.047 343.955C714.656 342.84 705.177 329.736 734.729 241.918C735.562 239.132 734.172 236.064 731.38 235.226C728.594 234.111 725.526 235.783 724.411 238.575C692.073 335.314 704.338 347.58 708.245 351.481C709.917 352.877 712.703 355.106 716.885 355.106C718.281 355.106 719.953 354.83 721.906 353.991C732.219 350.648 746.156 335.871 758.703 314.96C768.182 299.351 775.432 282.621 779.891 267.007C785.187 276.21 792.719 282.34 801.917 284.851C818.365 289.033 837.88 281.226 852.099 264.778C854.052 262.549 853.771 259.205 851.542 257.252Z" fill="#C026D3"/>
<path d="M954.135 256.694C952.463 254.184 949.119 253.627 946.609 255.299C922.629 270.913 898.098 288.2 874.682 309.944C878.025 289.314 881.369 267.288 884.437 244.148C884.994 241.637 883.322 239.132 880.812 238.293C878.583 237.455 875.796 238.575 874.682 240.804C869.103 250.283 856.838 269.799 845.963 282.903C842.062 287.637 838.161 290.148 836.208 288.757C831.468 285.965 828.124 266.731 838.994 240.247C840.109 237.455 838.718 234.392 836.208 233.278C833.421 232.158 830.353 233.554 829.239 236.34C817.807 264.22 818.364 290.705 830.911 297.955C833.978 300.184 842.895 303.252 854.051 289.872C859.905 282.903 865.478 275.095 870.499 267.564C867.708 286.804 864.921 305.205 861.853 322.767C838.437 346.741 816.411 375.736 797.452 412.538C765.671 473.59 759.817 541.34 775.708 560.856C778.775 564.757 782.682 566.71 786.859 566.71C788.254 566.71 789.369 566.429 790.765 566.153C808.885 560.856 825.057 520.71 835.65 487.809C848.754 446.83 860.739 393.299 871.89 327.783C897.817 301.856 925.421 281.783 952.463 264.22C954.973 262.549 955.807 259.205 954.135 256.694ZM825.333 484.465C805.26 548.028 790.765 555.002 787.978 555.835C786.859 556.116 785.744 556.116 784.072 554.163C774.036 541.898 773.202 482.512 806.932 417.278C822.546 387.444 839.833 362.913 858.51 342.002C848.473 399.715 837.322 447.387 825.333 484.465Z" fill="#C026D3"/>
</g>
<defs>
<filter id="filter0_d_3_54" x="-4" y="0" width="1009" height="617" filterUnits="userSpaceOnUse" color-interpolation-filters="sRGB">
<feFlood flood-opacity="0" result="BackgroundImageFix"/>
<feColorMatrix in="SourceAlpha" type="matrix" values="0 0 0 0 0 0 0 0 0 0 0 0 0 0 0 0 0 0 127 0" result="hardAlpha"/>
<feOffset dy="4"/>
<feGaussianBlur stdDeviation="2"/>
<feComposite in2="hardAlpha" operator="out"/>
<feColorMatrix type="matrix" values="0 0 0 0 0 0 0 0 0 0 0 0 0 0 0 0 0 0 0.25 0"/>
<feBlend mode="normal" in2="BackgroundImageFix" result="effect1_dropShadow_3_54"/>
<feBlend mode="normal" in="SourceGraphic" in2="effect1_dropShadow_3_54" result="shape"/>
</filter>
</defs>
</svg>
