<svg xmlns="http://www.w3.org/2000/svg" xmlns:xlink="http://www.w3.org/1999/xlink" width="500" zoomAndPan="magnify" viewBox="0 0 375 374.999991" height="500" preserveAspectRatio="xMidYMid meet" version="1.0"><defs><clipPath id="4c7f8ede80"><path d="M 64.246094 54.074219 L 310.996094 54.074219 L 310.996094 321 L 64.246094 321 Z M 64.246094 54.074219 " clip-rule="nonzero"/></clipPath></defs><g clip-path="url(#4c7f8ede80)"><path fill="#01ec64" d="M 187.4375 54.074219 C 183.691406 54.074219 179.949219 54.992188 176.714844 56.839844 L 75.003906 115.554688 C 68.433594 119.351562 64.339844 126.539062 64.339844 134.136719 L 64.339844 240.65625 C 64.339844 248.355469 68.433594 255.441406 75.003906 259.238281 L 101.703125 274.636719 C 114.636719 281 119.246094 280.988281 125.097656 280.988281 C 144.289062 280.988281 155.265625 269.394531 155.265625 249.277344 L 155.265625 139.367188 C 155.265625 137.726562 153.941406 136.378906 152.296875 136.378906 L 139.46875 136.378906 C 137.726562 136.378906 136.484375 137.726562 136.484375 139.367188 L 136.484375 249.175781 C 136.484375 258.210938 127.152344 267.03125 112.066406 259.539062 L 84.144531 243.425781 C 83.117188 242.910156 82.5 241.785156 82.5 240.65625 L 82.5 134.234375 C 82.5 133.003906 83.117188 131.964844 84.144531 131.347656 L 185.855469 72.65625 C 186.777344 72.039062 188.015625 72.039062 189.042969 72.65625 L 290.753906 131.347656 C 291.78125 131.964844 292.398438 133.007812 292.398438 134.136719 L 292.398438 240.65625 C 292.398438 241.785156 291.777344 242.910156 290.855469 243.425781 L 189.042969 302.238281 C 188.117188 302.75 186.777344 302.75 185.855469 302.238281 L 159.675781 286.742188 C 158.957031 286.230469 157.949219 286.132812 157.230469 286.542969 C 149.941406 290.648438 148.609375 291.15625 141.835938 293.519531 C 140.191406 294.03125 137.625 295.054688 142.757812 297.929688 L 176.714844 318.054688 C 180 319.902344 183.703125 320.921875 187.398438 320.921875 C 191.195312 320.921875 194.878906 319.902344 198.164062 318.054688 L 299.996094 259.238281 C 306.5625 255.441406 310.660156 248.355469 310.660156 240.65625 L 310.660156 134.234375 C 310.660156 126.539062 306.5625 119.449219 299.996094 115.652344 L 198.164062 56.839844 C 194.929688 54.992188 191.183594 54.074219 187.4375 54.074219 Z M 214.800781 136.238281 C 185.753906 136.238281 168.414062 148.546875 168.414062 169.074219 C 168.414062 191.347656 185.640625 197.496094 213.558594 200.265625 C 246.914062 203.550781 249.480469 208.492188 249.480469 215.058594 C 249.480469 226.347656 240.359375 231.175781 218.910156 231.175781 C 191.917969 231.175781 185.960938 224.394531 184.011719 211.050781 C 183.804688 209.613281 182.582031 208.585938 181.144531 208.585938 L 167.894531 208.585938 C 166.253906 208.585938 165.027344 209.933594 165.027344 211.472656 C 165.027344 228.609375 174.367188 249.015625 218.910156 249.015625 C 251.136719 249.015625 269.605469 236.304688 269.605469 214.136719 C 269.605469 192.175781 254.722656 186.3125 223.519531 182.105469 C 191.808594 178 188.621094 175.84375 188.621094 168.453125 C 188.621094 162.296875 191.402344 154.199219 214.800781 154.199219 C 235.636719 154.199219 243.433594 158.703125 246.613281 172.761719 C 246.921875 174.097656 248.042969 175.128906 249.480469 175.128906 L 262.730469 175.128906 C 263.550781 175.128906 264.257812 174.722656 264.875 174.105469 C 265.386719 173.59375 265.699219 172.765625 265.597656 171.839844 C 263.542969 147.621094 247.4375 136.238281 214.800781 136.238281 Z M 214.800781 136.238281 " fill-opacity="1" fill-rule="nonzero"/></g></svg>