<svg xmlns="http://www.w3.org/2000/svg" xmlns:xlink="http://www.w3.org/1999/xlink" width="500" zoomAndPan="magnify" viewBox="0 0 375 374.999991" height="500" preserveAspectRatio="xMidYMid meet" version="1.0"><defs><clipPath id="311976503a"><path d="M 44.859375 44.859375 L 329.859375 44.859375 L 329.859375 329.859375 L 44.859375 329.859375 Z M 44.859375 44.859375 " clip-rule="nonzero"/></clipPath></defs><g clip-path="url(#311976503a)"><path fill="#007acc" d="M 44.859375 329.859375 L 329.859375 329.859375 L 329.859375 44.859375 L 44.859375 44.859375 Z M 44.859375 329.859375 " fill-opacity="1" fill-rule="nonzero"/></g><path fill="#ffffff" d="M 107.871094 188.296875 L 107.785156 199.972656 L 144.878906 199.972656 L 144.878906 305.378906 L 171.117188 305.378906 L 171.117188 199.972656 L 208.210938 199.972656 L 208.210938 188.53125 C 208.210938 182.195312 208.078125 176.894531 207.894531 176.761719 C 207.761719 176.585938 185.1875 176.496094 157.8125 176.539062 L 108.007812 176.671875 Z M 107.871094 188.296875 " fill-opacity="1" fill-rule="nonzero"/><path fill="#ffffff" d="M 274.832031 176.351562 C 282.066406 178.152344 287.589844 181.371094 292.65625 186.613281 C 295.269531 189.421875 299.167969 194.53125 299.480469 195.753906 C 299.570312 196.121094 287.175781 204.4375 279.664062 209.101562 C 279.394531 209.28125 278.316406 208.101562 277.089844 206.296875 C 273.429688 200.953125 269.578125 198.648438 263.699219 198.25 C 255.058594 197.660156 249.492188 202.179688 249.539062 209.738281 C 249.539062 211.953125 249.859375 213.265625 250.761719 215.070312 C 252.664062 219.011719 256.195312 221.359375 267.273438 226.160156 C 287.679688 234.929688 296.40625 240.71875 301.839844 248.957031 C 307.894531 258.144531 309.253906 272.792969 305.136719 283.691406 C 300.613281 295.550781 289.394531 303.597656 273.605469 306.269531 C 268.71875 307.128906 257.140625 306.992188 251.886719 306.046875 C 240.441406 304.011719 229.585938 298.355469 222.898438 290.941406 C 220.269531 288.046875 215.160156 280.488281 215.472656 279.941406 C 215.617188 279.761719 216.785156 279.039062 218.097656 278.269531 C 219.367188 277.546875 224.164062 274.785156 228.6875 272.160156 L 236.867188 267.417969 L 238.59375 269.945312 C 240.988281 273.605469 246.242188 278.628906 249.402344 280.308594 C 258.5 285.097656 270.980469 284.417969 277.136719 278.90625 C 279.761719 276.5 280.84375 274.019531 280.84375 270.355469 C 280.84375 267.050781 280.441406 265.601562 278.714844 263.121094 C 276.5 259.945312 271.980469 257.273438 259.132812 251.71875 C 244.425781 245.386719 238.09375 241.445312 232.304688 235.199219 C 228.953125 231.582031 225.792969 225.792969 224.476562 220.949219 C 223.386719 216.929688 223.121094 206.84375 223.976562 202.769531 C 227.015625 188.5625 237.738281 178.65625 253.199219 175.714844 C 258.222656 174.769531 269.898438 175.125 274.832031 176.351562 Z M 274.832031 176.351562 " fill-opacity="1" fill-rule="nonzero"/></svg>