<svg xmlns="http://www.w3.org/2000/svg" xmlns:xlink="http://www.w3.org/1999/xlink" width="500" zoomAndPan="magnify" viewBox="0 0 375 374.999991" height="500" preserveAspectRatio="xMidYMid meet" version="1.0"><defs><clipPath id="8655aa4060"><path d="M 44.859375 44.859375 L 329.859375 44.859375 L 329.859375 329.859375 L 44.859375 329.859375 Z M 44.859375 44.859375 " clip-rule="nonzero"/></clipPath></defs><g clip-path="url(#8655aa4060)"><path fill="#f03c2e" d="M 324.480469 174.667969 L 200.050781 50.238281 C 199.628906 49.816406 199.183594 49.410156 198.71875 49.03125 C 198.253906 48.648438 197.769531 48.292969 197.273438 47.957031 C 196.773438 47.625 196.257812 47.3125 195.726562 47.03125 C 195.195312 46.746094 194.652344 46.492188 194.097656 46.261719 C 193.542969 46.03125 192.976562 45.828125 192.402344 45.652344 C 191.828125 45.480469 191.246094 45.332031 190.65625 45.214844 C 190.066406 45.097656 189.472656 45.011719 188.875 44.953125 C 188.277344 44.894531 187.675781 44.863281 187.074219 44.863281 C 186.476562 44.863281 185.875 44.894531 185.277344 44.953125 C 184.679688 45.011719 184.085938 45.097656 183.496094 45.214844 C 182.90625 45.332031 182.324219 45.480469 181.75 45.652344 C 181.171875 45.828125 180.609375 46.03125 180.050781 46.261719 C 179.496094 46.492188 178.953125 46.746094 178.425781 47.03125 C 177.894531 47.3125 177.378906 47.625 176.878906 47.957031 C 176.378906 48.292969 175.898438 48.648438 175.433594 49.03125 C 174.96875 49.410156 174.523438 49.816406 174.097656 50.238281 L 148.269531 76.066406 L 181.046875 108.84375 C 188.671875 106.171875 197.398438 107.996094 203.472656 114.070312 C 204.191406 114.792969 204.855469 115.558594 205.46875 116.371094 C 206.082031 117.1875 206.632812 118.039062 207.125 118.929688 C 207.617188 119.820312 208.046875 120.742188 208.410156 121.691406 C 208.773438 122.644531 209.070312 123.617188 209.296875 124.609375 C 209.523438 125.601562 209.683594 126.605469 209.769531 127.617188 C 209.855469 128.632812 209.871094 129.648438 209.816406 130.664062 C 209.761719 131.683594 209.636719 132.691406 209.441406 133.6875 C 209.246094 134.6875 208.980469 135.667969 208.648438 136.628906 L 240.238281 168.222656 C 247.878906 165.585938 256.695312 167.285156 262.796875 173.40625 C 263.304688 173.910156 263.78125 174.441406 264.238281 174.992188 C 264.691406 175.546875 265.117188 176.121094 265.515625 176.714844 C 265.914062 177.308594 266.28125 177.921875 266.617188 178.554688 C 266.957031 179.183594 267.261719 179.832031 267.535156 180.492188 C 267.808594 181.152344 268.050781 181.824219 268.257812 182.511719 C 268.464844 183.195312 268.640625 183.890625 268.78125 184.589844 C 268.917969 185.292969 269.023438 186 269.09375 186.710938 C 269.164062 187.425781 269.199219 188.136719 269.199219 188.851562 C 269.199219 189.570312 269.164062 190.28125 269.09375 190.996094 C 269.023438 191.707031 268.921875 192.414062 268.78125 193.117188 C 268.640625 193.816406 268.46875 194.511719 268.257812 195.195312 C 268.050781 195.882812 267.8125 196.554688 267.535156 197.214844 C 267.261719 197.875 266.957031 198.523438 266.621094 199.152344 C 266.28125 199.785156 265.914062 200.398438 265.515625 200.992188 C 265.121094 201.585938 264.695312 202.160156 264.238281 202.714844 C 263.785156 203.269531 263.304688 203.796875 262.800781 204.304688 C 262.292969 204.808594 261.765625 205.289062 261.210938 205.742188 C 260.65625 206.195312 260.082031 206.621094 259.488281 207.019531 C 258.894531 207.417969 258.28125 207.785156 257.648438 208.121094 C 257.019531 208.460938 256.371094 208.765625 255.710938 209.039062 C 255.050781 209.3125 254.375 209.554688 253.691406 209.761719 C 253.007812 209.96875 252.3125 210.140625 251.609375 210.28125 C 250.910156 210.421875 250.203125 210.523438 249.488281 210.59375 C 248.777344 210.664062 248.0625 210.699219 247.347656 210.699219 C 246.632812 210.699219 245.917969 210.664062 245.207031 210.59375 C 244.492188 210.523438 243.789062 210.417969 243.085938 210.277344 C 242.382812 210.136719 241.691406 209.964844 241.003906 209.753906 C 240.320312 209.546875 239.648438 209.304688 238.988281 209.03125 C 238.324219 208.757812 237.679688 208.453125 237.050781 208.113281 C 236.417969 207.777344 235.804688 207.410156 235.210938 207.011719 C 234.617188 206.613281 234.042969 206.1875 233.488281 205.734375 C 232.9375 205.277344 232.40625 204.796875 231.902344 204.292969 C 225.488281 197.878906 223.902344 188.4375 227.144531 180.539062 L 197.683594 151.078125 L 197.683594 228.605469 C 199.835938 229.671875 201.765625 231.046875 203.472656 232.738281 C 203.976562 233.242188 204.457031 233.773438 204.910156 234.328125 C 205.367188 234.878906 205.789062 235.453125 206.1875 236.046875 C 206.585938 236.640625 206.953125 237.253906 207.289062 237.886719 C 207.628906 238.515625 207.933594 239.164062 208.207031 239.824219 C 208.480469 240.484375 208.722656 241.15625 208.929688 241.839844 C 209.136719 242.527344 209.308594 243.21875 209.449219 243.921875 C 209.589844 244.621094 209.695312 245.328125 209.765625 246.039062 C 209.835938 246.753906 209.867188 247.464844 209.867188 248.179688 C 209.867188 248.898438 209.835938 249.609375 209.765625 250.324219 C 209.695312 251.035156 209.589844 251.742188 209.449219 252.441406 C 209.308594 253.144531 209.136719 253.835938 208.929688 254.523438 C 208.722656 255.207031 208.480469 255.878906 208.207031 256.539062 C 207.933594 257.199219 207.628906 257.847656 207.289062 258.476562 C 206.953125 259.109375 206.585938 259.71875 206.1875 260.316406 C 205.789062 260.910156 205.367188 261.484375 204.910156 262.035156 C 204.457031 262.589844 203.976562 263.121094 203.472656 263.625 C 202.964844 264.128906 202.4375 264.609375 201.882812 265.0625 C 201.332031 265.519531 200.757812 265.945312 200.164062 266.339844 C 199.566406 266.738281 198.953125 267.105469 198.324219 267.441406 C 197.695312 267.78125 197.046875 268.085938 196.386719 268.359375 C 195.726562 268.632812 195.054688 268.875 194.367188 269.082031 C 193.683594 269.289062 192.992188 269.460938 192.289062 269.601562 C 191.589844 269.742188 190.882812 269.847656 190.167969 269.917969 C 189.457031 269.988281 188.742188 270.023438 188.027344 270.023438 C 187.3125 270.023438 186.601562 269.988281 185.886719 269.917969 C 185.175781 269.847656 184.46875 269.742188 183.769531 269.601562 C 183.066406 269.460938 182.375 269.289062 181.6875 269.082031 C 181.003906 268.875 180.332031 268.632812 179.671875 268.359375 C 179.011719 268.085938 178.363281 267.78125 177.734375 267.441406 C 177.101562 267.105469 176.488281 266.738281 175.894531 266.339844 C 175.300781 265.945312 174.726562 265.519531 174.171875 265.0625 C 173.621094 264.609375 173.089844 264.128906 172.585938 263.625 C 172.078125 263.121094 171.597656 262.589844 171.144531 262.039062 C 170.691406 261.484375 170.265625 260.910156 169.867188 260.316406 C 169.46875 259.722656 169.101562 259.109375 168.761719 258.480469 C 168.425781 257.847656 168.117188 257.203125 167.84375 256.542969 C 167.570312 255.878906 167.328125 255.207031 167.121094 254.523438 C 166.914062 253.839844 166.738281 253.144531 166.601562 252.445312 C 166.460938 251.742188 166.355469 251.035156 166.285156 250.324219 C 166.214844 249.609375 166.179688 248.898438 166.179688 248.179688 C 166.179688 247.464844 166.214844 246.753906 166.285156 246.039062 C 166.355469 245.328125 166.460938 244.621094 166.601562 243.917969 C 166.738281 243.21875 166.914062 242.523438 167.121094 241.839844 C 167.328125 241.15625 167.570312 240.484375 167.84375 239.820312 C 168.117188 239.160156 168.425781 238.515625 168.761719 237.882812 C 169.101562 237.253906 169.46875 236.640625 169.867188 236.046875 C 170.265625 235.453125 170.691406 234.878906 171.144531 234.324219 C 171.597656 233.773438 172.078125 233.242188 172.585938 232.738281 C 174.695312 230.636719 177.039062 229.042969 179.738281 227.972656 L 179.738281 149.722656 C 177.136719 148.652344 174.695312 147.078125 172.585938 144.957031 C 171.824219 144.195312 171.121094 143.382812 170.480469 142.515625 C 169.835938 141.652344 169.261719 140.742188 168.753906 139.792969 C 168.246094 138.84375 167.8125 137.859375 167.449219 136.84375 C 167.089844 135.828125 166.804688 134.792969 166.597656 133.734375 C 166.386719 132.679688 166.257812 131.613281 166.207031 130.535156 C 166.160156 129.457031 166.1875 128.382812 166.296875 127.3125 C 166.40625 126.238281 166.59375 125.183594 166.859375 124.136719 C 167.125 123.09375 167.464844 122.074219 167.882812 121.082031 L 135.554688 88.769531 L 50.230469 174 C 49.804688 174.425781 49.402344 174.871094 49.019531 175.335938 C 48.640625 175.800781 48.28125 176.28125 47.945312 176.78125 C 47.613281 177.28125 47.304688 177.796875 47.019531 178.328125 C 46.734375 178.859375 46.480469 179.402344 46.25 179.957031 C 46.019531 180.511719 45.816406 181.078125 45.640625 181.652344 C 45.464844 182.226562 45.320312 182.8125 45.203125 183.398438 C 45.085938 183.988281 44.996094 184.585938 44.9375 185.183594 C 44.878906 185.78125 44.851562 186.382812 44.851562 186.980469 C 44.851562 187.582031 44.878906 188.183594 44.9375 188.78125 C 44.996094 189.378906 45.085938 189.972656 45.203125 190.5625 C 45.320312 191.152344 45.464844 191.738281 45.640625 192.3125 C 45.816406 192.886719 46.019531 193.453125 46.25 194.007812 C 46.480469 194.5625 46.734375 195.105469 47.019531 195.636719 C 47.304688 196.167969 47.613281 196.683594 47.945312 197.183594 C 48.28125 197.683594 48.640625 198.164062 49.019531 198.628906 C 49.402344 199.09375 49.804688 199.539062 50.230469 199.964844 L 174.667969 324.382812 C 175.09375 324.808594 175.539062 325.210938 176.003906 325.59375 C 176.46875 325.976562 176.949219 326.332031 177.449219 326.667969 C 177.949219 327 178.464844 327.308594 178.996094 327.59375 C 179.523438 327.875 180.066406 328.132812 180.621094 328.363281 C 181.179688 328.59375 181.742188 328.796875 182.320312 328.96875 C 182.894531 329.144531 183.476562 329.289062 184.066406 329.40625 C 184.65625 329.523438 185.25 329.613281 185.847656 329.671875 C 186.445312 329.730469 187.042969 329.761719 187.644531 329.761719 C 188.246094 329.761719 188.847656 329.730469 189.445312 329.671875 C 190.042969 329.613281 190.636719 329.523438 191.226562 329.40625 C 191.816406 329.289062 192.398438 329.144531 192.972656 328.96875 C 193.546875 328.796875 194.113281 328.59375 194.667969 328.363281 C 195.222656 328.132812 195.765625 327.875 196.296875 327.59375 C 196.828125 327.308594 197.34375 327 197.839844 326.667969 C 198.339844 326.332031 198.824219 325.976562 199.289062 325.59375 C 199.753906 325.210938 200.199219 324.808594 200.621094 324.382812 L 324.480469 200.71875 C 324.90625 200.296875 325.308594 199.851562 325.691406 199.386719 C 326.074219 198.921875 326.433594 198.4375 326.765625 197.9375 C 327.101562 197.4375 327.410156 196.925781 327.691406 196.394531 C 327.976562 195.863281 328.234375 195.320312 328.464844 194.765625 C 328.695312 194.210938 328.898438 193.644531 329.070312 193.070312 C 329.246094 192.492188 329.390625 191.910156 329.507812 191.320312 C 329.628906 190.730469 329.714844 190.136719 329.773438 189.539062 C 329.832031 188.941406 329.863281 188.339844 329.863281 187.738281 C 329.863281 187.136719 329.832031 186.539062 329.773438 185.941406 C 329.714844 185.339844 329.628906 184.746094 329.507812 184.15625 C 329.390625 183.566406 329.246094 182.984375 329.070312 182.410156 C 328.898438 181.835938 328.695312 181.269531 328.464844 180.714844 C 328.234375 180.15625 327.976562 179.613281 327.691406 179.085938 C 327.410156 178.554688 327.101562 178.039062 326.765625 177.539062 C 326.433594 177.039062 326.074219 176.558594 325.691406 176.09375 C 325.308594 175.628906 324.90625 175.183594 324.480469 174.757812 " fill-opacity="1" fill-rule="nonzero"/></g></svg>