<svg xmlns="http://www.w3.org/2000/svg" xmlns:xlink="http://www.w3.org/1999/xlink" width="500" zoomAndPan="magnify" viewBox="0 0 375 374.999991" height="500" preserveAspectRatio="xMidYMid meet" version="1.0"><path fill="#f06292" d="M 291.703125 205.308594 C 281.625 205.359375 272.898438 207.78125 265.585938 211.394531 C 262.914062 206.050781 260.203125 201.347656 259.75 197.851562 C 259.21875 193.769531 258.601562 191.332031 259.246094 186.46875 C 259.886719 181.609375 262.699219 174.722656 262.660156 174.203125 C 262.621094 173.6875 262.03125 171.214844 256.21875 171.167969 C 250.40625 171.128906 245.433594 172.289062 244.851562 173.824219 C 244.265625 175.359375 243.148438 178.816406 242.453125 182.421875 C 241.4375 187.695312 230.847656 206.515625 224.839844 216.355469 C 222.875 212.511719 221.203125 209.125 220.855469 206.449219 C 220.328125 202.371094 219.710938 199.929688 220.351562 195.070312 C 220.996094 190.210938 223.804688 183.320312 223.765625 182.804688 C 223.726562 182.285156 223.136719 179.8125 217.324219 179.765625 C 211.515625 179.726562 206.542969 180.886719 205.957031 182.421875 C 205.375 183.957031 204.746094 187.546875 203.558594 191.023438 C 202.367188 194.492188 188.300781 225.878906 184.613281 234.019531 C 182.730469 238.164062 181.101562 241.496094 179.945312 243.765625 C 179.941406 243.757812 179.941406 243.753906 179.941406 243.753906 C 179.941406 243.753906 179.867188 243.902344 179.75 244.160156 C 178.761719 246.09375 178.179688 247.164062 178.179688 247.164062 C 178.179688 247.164062 178.183594 247.175781 178.199219 247.203125 C 177.410156 248.625 176.574219 249.945312 176.160156 249.945312 C 175.871094 249.945312 175.289062 246.160156 176.285156 240.964844 C 178.382812 230.078125 183.40625 213.101562 183.359375 212.511719 C 183.335938 212.207031 184.296875 209.25 180.078125 207.703125 C 175.976562 206.199219 174.515625 208.707031 174.140625 208.710938 C 173.78125 208.71875 173.511719 209.597656 173.511719 209.597656 C 173.511719 209.597656 178.078125 190.503906 164.800781 190.503906 C 156.492188 190.503906 144.984375 199.601562 139.320312 207.847656 C 135.742188 209.800781 128.082031 213.988281 119.964844 218.453125 C 116.84375 220.171875 113.660156 221.921875 110.640625 223.589844 C 110.4375 223.359375 110.226562 223.136719 110.019531 222.90625 C 93.90625 205.703125 64.136719 193.535156 65.394531 170.398438 C 65.851562 161.992188 68.773438 139.847656 122.609375 112.992188 C 166.710938 90.992188 202.019531 97.046875 208.121094 110.460938 C 216.835938 129.632812 189.25 165.257812 143.453125 170.398438 C 126.003906 172.359375 116.8125 165.585938 114.527344 163.066406 C 112.121094 160.410156 111.761719 160.292969 110.863281 160.789062 C 109.402344 161.605469 110.328125 163.945312 110.863281 165.34375 C 112.234375 168.90625 117.839844 175.222656 127.40625 178.371094 C 135.828125 181.136719 156.3125 182.652344 181.085938 173.054688 C 208.839844 162.3125 230.507812 132.414062 224.140625 107.429688 C 217.667969 82.019531 175.578125 73.664062 135.742188 87.832031 C 112.003906 96.265625 86.339844 109.503906 67.882812 126.78125 C 45.941406 147.324219 42.441406 165.210938 43.882812 172.683594 C 49.007812 199.234375 85.558594 216.523438 100.195312 229.335938 C 99.476562 229.734375 98.796875 230.109375 98.179688 230.449219 C 90.839844 234.085938 62.976562 248.683594 56.003906 264.105469 C 48.097656 281.597656 57.261719 294.152344 63.328125 295.847656 C 82.128906 301.082031 101.414062 291.660156 111.789062 276.179688 C 122.152344 260.707031 120.886719 240.550781 116.132812 231.355469 C 116.074219 231.242188 116.007812 231.132812 115.949219 231.015625 C 117.839844 229.894531 119.773438 228.75 121.6875 227.625 C 125.421875 225.425781 129.089844 223.378906 132.269531 221.648438 C 130.488281 226.527344 129.183594 232.386719 128.507812 240.839844 C 127.707031 250.769531 131.777344 263.609375 137.097656 268.65625 C 139.441406 270.882812 142.261719 270.933594 144.042969 270.933594 C 150.234375 270.933594 153.058594 265.777344 156.171875 259.679688 C 159.984375 252.199219 163.371094 243.488281 163.371094 243.488281 C 163.371094 243.488281 159.125 267.011719 170.695312 267.011719 C 174.914062 267.011719 179.15625 261.535156 181.046875 258.746094 C 181.054688 258.78125 181.054688 258.792969 181.054688 258.792969 C 181.054688 258.792969 181.164062 258.609375 181.382812 258.25 C 181.820312 257.578125 182.070312 257.152344 182.070312 257.152344 C 182.070312 257.152344 182.078125 257.105469 182.089844 257.027344 C 183.785156 254.082031 187.546875 247.367188 193.183594 236.289062 C 200.46875 221.976562 207.453125 204.042969 207.453125 204.042969 C 207.453125 204.042969 208.101562 208.425781 210.230469 215.679688 C 211.480469 219.941406 214.140625 224.660156 216.246094 229.183594 C 214.554688 231.53125 213.519531 232.878906 213.519531 232.878906 C 213.519531 232.878906 213.527344 232.902344 213.546875 232.949219 C 212.195312 234.746094 210.683594 236.679688 209.097656 238.570312 C 203.34375 245.425781 196.496094 253.257812 195.578125 255.511719 C 194.5 258.175781 194.753906 260.132812 196.84375 261.710938 C 198.371094 262.859375 201.082031 263.042969 203.921875 262.851562 C 209.089844 262.503906 212.71875 261.21875 214.515625 260.4375 C 217.3125 259.449219 220.570312 257.894531 223.621094 255.644531 C 229.261719 251.492188 232.664062 245.554688 232.335938 237.683594 C 232.152344 233.347656 230.777344 229.054688 229.027344 225 C 229.539062 224.265625 230.050781 223.515625 230.566406 222.769531 C 239.457031 209.753906 246.359375 195.457031 246.359375 195.457031 C 246.359375 195.457031 247.007812 199.839844 249.136719 207.09375 C 250.210938 210.757812 252.339844 214.765625 254.253906 218.691406 C 245.890625 225.492188 240.710938 233.394531 238.90625 238.578125 C 235.578125 248.167969 238.1875 252.507812 243.074219 253.5 C 245.289062 253.945312 248.421875 252.929688 250.773438 251.933594 C 253.703125 250.960938 257.21875 249.339844 260.507812 246.921875 C 266.152344 242.769531 271.574219 236.957031 271.25 229.09375 C 271.097656 225.511719 270.128906 221.957031 268.8125 218.546875 C 275.898438 215.585938 285.074219 213.945312 296.761719 215.3125 C 321.835938 218.242188 326.75 233.914062 325.8125 240.472656 C 324.867188 247.03125 319.613281 250.640625 317.851562 251.730469 C 316.097656 252.816406 315.558594 253.199219 315.703125 254.003906 C 315.917969 255.179688 316.730469 255.140625 318.230469 254.882812 C 320.296875 254.535156 331.394531 249.550781 331.871094 237.441406 C 332.46875 222.054688 317.761719 205.171875 291.703125 205.308594 Z M 98.441406 270.535156 C 90.132812 279.605469 78.535156 283.03125 73.558594 280.144531 C 68.183594 277.027344 70.3125 263.671875 80.503906 254.042969 C 86.714844 248.179688 94.734375 242.773438 100.054688 239.449219 C 101.265625 238.722656 103.039062 237.652344 105.203125 236.355469 C 105.5625 236.148438 105.765625 236.039062 105.765625 236.039062 L 105.761719 236.027344 C 106.179688 235.777344 106.605469 235.519531 107.042969 235.25 C 110.757812 248.953125 107.160156 261.015625 98.441406 270.535156 Z M 158.949219 229.363281 C 156.058594 236.417969 150.003906 254.484375 146.316406 253.511719 C 143.152344 252.679688 141.226562 238.949219 145.6875 225.4375 C 147.929688 218.636719 152.722656 210.511719 155.542969 207.355469 C 160.074219 202.277344 165.066406 200.617188 166.28125 202.679688 C 167.820312 205.300781 160.761719 224.933594 158.949219 229.363281 Z M 208.933594 253.238281 C 207.707031 253.878906 206.582031 254.28125 206.0625 253.972656 C 205.675781 253.742188 206.566406 252.894531 206.566406 252.894531 C 206.566406 252.894531 212.816406 246.160156 215.28125 243.097656 C 216.714844 241.3125 218.375 239.195312 220.183594 236.832031 C 220.195312 237.070312 220.203125 237.304688 220.203125 237.535156 C 220.1875 245.601562 212.40625 251.046875 208.933594 253.238281 Z M 247.4375 244.449219 C 246.519531 243.796875 246.679688 241.691406 249.6875 235.128906 C 250.863281 232.550781 253.566406 228.214844 258.242188 224.066406 C 258.785156 225.773438 259.113281 227.40625 259.109375 228.929688 C 259.046875 239.082031 251.816406 242.875 247.4375 244.449219 Z M 247.4375 244.449219 " fill-opacity="1" fill-rule="nonzero"/></svg>