<svg xmlns="http://www.w3.org/2000/svg" xmlns:xlink="http://www.w3.org/1999/xlink" width="500" zoomAndPan="magnify" viewBox="0 0 375 374.999991" height="500" preserveAspectRatio="xMidYMid meet" version="1.0"><defs><clipPath id="d9eae4d829"><path d="M 44.859375 44.859375 L 329.859375 44.859375 L 329.859375 329.859375 L 44.859375 329.859375 Z M 44.859375 44.859375 " clip-rule="nonzero"/></clipPath></defs><g clip-path="url(#d9eae4d829)"><path fill="#563d7c" d="M 44.859375 293.113281 C 44.859375 313.40625 61.3125 329.859375 81.609375 329.859375 L 293.109375 329.859375 C 313.40625 329.859375 329.859375 313.40625 329.859375 293.113281 L 329.859375 81.609375 C 329.859375 61.3125 313.40625 44.859375 293.109375 44.859375 L 81.609375 44.859375 C 61.3125 44.859375 44.859375 61.3125 44.859375 81.609375 Z M 44.859375 293.113281 " fill-opacity="1" fill-rule="nonzero"/></g><path fill="#ffffff" d="M 163.046875 170.929688 L 163.046875 130.566406 L 198.570312 130.566406 C 201.957031 130.566406 205.21875 130.847656 208.355469 131.410156 C 211.496094 131.976562 214.28125 132.984375 216.695312 134.433594 C 219.113281 135.882812 221.046875 137.898438 222.496094 140.476562 C 223.941406 143.054688 224.667969 146.355469 224.667969 150.382812 C 224.667969 157.636719 222.496094 162.867188 218.144531 166.097656 C 213.800781 169.316406 208.234375 170.929688 201.464844 170.929688 Z M 125.101562 101.082031 L 125.101562 273.640625 L 208.726562 273.640625 C 216.449219 273.640625 223.988281 272.671875 231.3125 270.734375 C 238.648438 268.808594 245.171875 265.824219 250.894531 261.792969 C 256.617188 257.765625 261.160156 252.578125 264.542969 246.207031 C 267.929688 239.839844 269.621094 232.316406 269.621094 223.609375 C 269.621094 212.820312 267.003906 203.59375 261.773438 195.945312 C 256.527344 188.285156 248.601562 182.929688 237.960938 179.867188 C 245.695312 176.160156 251.542969 171.40625 255.484375 165.605469 C 259.433594 159.808594 261.40625 152.558594 261.40625 143.859375 C 261.40625 135.800781 260.082031 129.035156 257.417969 123.558594 C 254.757812 118.078125 251.019531 113.6875 246.1875 110.386719 C 241.34375 107.082031 235.542969 104.707031 228.785156 103.257812 C 222.015625 101.804688 214.523438 101.082031 206.308594 101.082031 Z M 163.046875 244.160156 L 163.046875 196.789062 L 204.371094 196.789062 C 212.585938 196.789062 219.191406 198.683594 224.1875 202.46875 C 229.1875 206.253906 231.679688 212.578125 231.679688 221.4375 C 231.679688 225.945312 230.914062 229.65625 229.386719 232.558594 C 227.851562 235.453125 225.800781 237.746094 223.21875 239.441406 C 220.648438 241.132812 217.664062 242.347656 214.28125 243.070312 C 210.894531 243.792969 207.355469 244.160156 203.648438 244.160156 Z M 163.046875 244.160156 " fill-opacity="1" fill-rule="nonzero"/></svg>