<svg xmlns="http://www.w3.org/2000/svg" xmlns:xlink="http://www.w3.org/1999/xlink" width="500" zoomAndPan="magnify" viewBox="0 0 375 374.999991" height="500" preserveAspectRatio="xMidYMid meet" version="1.0"><defs><clipPath id="f545927cd3"><path d="M 59.839844 44.859375 L 314.839844 44.859375 L 314.839844 329.859375 L 59.839844 329.859375 Z M 59.839844 44.859375 " clip-rule="nonzero"/></clipPath></defs><g clip-path="url(#f545927cd3)"><path fill="#0277bd" d="M 314.800781 44.859375 L 59.875 44.859375 L 82.367188 299.859375 L 187.339844 329.859375 L 292.308594 299.859375 Z M 314.800781 44.859375 " fill-opacity="1" fill-rule="nonzero"/></g><path fill="#039be5" d="M 187.339844 67.359375 L 187.339844 306.609375 L 271.3125 282.609375 L 290.058594 67.359375 Z M 187.339844 67.359375 " fill-opacity="1" fill-rule="nonzero"/><path fill="#ffffff" d="M 255.566406 104.859375 L 187.339844 104.859375 L 187.339844 134.859375 L 224.078125 134.859375 L 221.828125 164.859375 L 187.339844 164.859375 L 187.339844 194.859375 L 220.328125 194.859375 L 218.078125 228.609375 L 187.339844 239.109375 L 187.339844 270.609375 L 246.570312 251.109375 L 251.820312 164.859375 Z M 255.566406 104.859375 " fill-opacity="1" fill-rule="nonzero"/><path fill="#eeeeee" d="M 187.339844 104.859375 L 187.339844 134.859375 L 120.609375 134.859375 L 118.359375 104.859375 Z M 152.847656 164.859375 L 154.347656 194.859375 L 187.339844 194.859375 L 187.339844 164.859375 Z M 155.847656 209.859375 L 125.855469 209.859375 L 128.105469 251.109375 L 187.339844 270.609375 L 187.339844 239.109375 L 156.597656 228.609375 Z M 155.847656 209.859375 " fill-opacity="1" fill-rule="nonzero"/></svg>