<svg xmlns="http://www.w3.org/2000/svg" xmlns:xlink="http://www.w3.org/1999/xlink" width="500" zoomAndPan="magnify" viewBox="0 0 375 374.999991" height="500" preserveAspectRatio="xMidYMid meet" version="1.0"><defs><clipPath id="0df28dc87a"><path d="M 62.691406 46 L 312.441406 46 L 312.441406 329 L 62.691406 329 Z M 62.691406 46 " clip-rule="nonzero"/></clipPath></defs><g clip-path="url(#0df28dc87a)"><path fill="#e44d26" d="M 85.605469 300.296875 L 62.914062 46.207031 L 312.21875 46.207031 L 289.503906 300.25 L 187.414062 328.515625 Z M 85.605469 300.296875 " fill-opacity="1" fill-rule="nonzero"/></g><path fill="#f16529" d="M 187.566406 306.917969 L 270.066406 284.085938 L 289.46875 66.980469 L 187.566406 66.980469 Z M 187.566406 306.917969 " fill-opacity="1" fill-rule="nonzero"/><path fill="#ebebeb" d="M 187.566406 161.222656 L 146.261719 161.222656 L 143.410156 129.3125 L 187.566406 129.3125 L 187.566406 98.152344 L 109.308594 98.152344 L 110.050781 106.503906 L 117.71875 192.382812 L 187.566406 192.382812 Z M 187.566406 242.152344 L 187.425781 242.1875 L 152.671875 232.8125 L 150.445312 207.957031 L 119.121094 207.957031 L 123.492188 256.890625 L 187.425781 274.605469 L 187.566406 274.570312 Z M 187.566406 242.152344 " fill-opacity="1" fill-rule="nonzero"/><path fill="#ffffff" d="M 187.460938 161.222656 L 187.460938 192.382812 L 225.886719 192.382812 L 222.257812 232.800781 L 187.449219 242.175781 L 187.449219 274.59375 L 251.429688 256.890625 L 251.898438 251.621094 L 259.238281 169.574219 L 260.003906 161.210938 L 251.59375 161.210938 Z M 187.460938 98.152344 L 187.460938 129.3125 L 262.84375 129.3125 L 263.46875 122.300781 L 264.894531 106.503906 L 265.636719 98.140625 Z M 187.460938 98.152344 " fill-opacity="1" fill-rule="nonzero"/></svg>