<svg xmlns="http://www.w3.org/2000/svg" xmlns:xlink="http://www.w3.org/1999/xlink" width="500" zoomAndPan="magnify" viewBox="0 0 375 374.999991" height="500" preserveAspectRatio="xMidYMid meet" version="1.0"><defs><clipPath id="132fd75d58"><path d="M 44.859375 44.859375 L 329.859375 44.859375 L 329.859375 329.859375 L 44.859375 329.859375 Z M 44.859375 44.859375 " clip-rule="nonzero"/></clipPath></defs><g clip-path="url(#132fd75d58)"><path fill="#ffd600" d="M 44.859375 44.859375 L 329.859375 44.859375 L 329.859375 329.859375 L 44.859375 329.859375 Z M 44.859375 44.859375 " fill-opacity="1" fill-rule="nonzero"/></g><path fill="#000001" d="M 231.203125 258.191406 C 236.683594 267.089844 242.636719 275.617188 255.246094 275.617188 C 265.839844 275.617188 271.394531 270.351562 271.394531 263.066406 C 271.394531 254.351562 265.648438 251.257812 253.996094 246.183594 L 247.605469 243.457031 C 229.167969 235.636719 216.90625 225.835938 216.90625 205.132812 C 216.90625 186.054688 231.511719 171.535156 254.335938 171.535156 C 270.589844 171.535156 282.265625 177.164062 290.6875 191.90625 L 270.785156 204.628906 C 266.410156 196.804688 261.675781 193.726562 254.335938 193.726562 C 246.847656 193.726562 242.105469 198.453125 242.105469 204.628906 C 242.105469 212.257812 246.855469 215.347656 257.820312 220.074219 L 264.207031 222.796875 C 285.9375 232.050781 298.195312 241.503906 298.195312 262.75 C 298.195312 285.644531 280.113281 298.195312 255.839844 298.195312 C 232.097656 298.195312 218.617188 286.28125 211.109375 271.53125 Z M 139.480469 258.839844 C 143.488281 266.011719 149.574219 271.53125 158.332031 271.53125 C 166.707031 271.53125 171.527344 268.222656 171.527344 255.355469 L 171.527344 171.527344 L 197.914062 171.527344 L 197.914062 259.410156 C 197.914062 286.066406 182.453125 298.195312 159.875 298.195312 C 139.472656 298.195312 124.746094 284.371094 118.746094 271.53125 Z M 139.480469 258.839844 " fill-opacity="1" fill-rule="nonzero"/></svg>