<svg xmlns="http://www.w3.org/2000/svg" xmlns:xlink="http://www.w3.org/1999/xlink" width="500" zoomAndPan="magnify" viewBox="0 0 375 374.999991" height="500" preserveAspectRatio="xMidYMid meet" version="1.0"><defs><clipPath id="04356b616e"><path d="M 119 41.179688 L 256 41.179688 L 256 333.679688 L 119 333.679688 Z M 119 41.179688 " clip-rule="nonzero"/></clipPath></defs><g clip-path="url(#04356b616e)"><path fill="#01ec64" d="M 212.882812 74.242188 C 200.636719 59.730469 190.09375 44.992188 187.9375 41.929688 C 187.886719 41.878906 187.824219 41.835938 187.757812 41.804688 C 187.6875 41.777344 187.617188 41.761719 187.542969 41.761719 C 187.464844 41.761719 187.394531 41.777344 187.324219 41.804688 C 187.257812 41.835938 187.195312 41.878906 187.144531 41.929688 C 184.988281 44.992188 174.445312 59.730469 162.199219 74.242188 C 57.089844 208.140625 178.753906 298.5 178.753906 298.5 L 179.773438 299.183594 C 180.679688 313.128906 182.949219 333.199219 182.949219 333.199219 L 192.019531 333.199219 C 192.019531 333.199219 194.285156 313.242188 195.195312 299.183594 L 196.214844 298.390625 C 196.328125 298.503906 317.992188 208.140625 212.882812 74.242188 Z M 187.484375 296.460938 C 187.484375 296.460938 182.042969 291.8125 180.566406 289.433594 L 180.566406 289.203125 L 187.144531 143.402344 C 187.144531 142.949219 187.824219 142.949219 187.824219 143.402344 L 194.402344 289.203125 L 194.402344 289.433594 C 192.925781 291.8125 187.484375 296.460938 187.484375 296.460938 Z M 187.484375 296.460938 " fill-opacity="1" fill-rule="nonzero"/></g></svg>