<svg xmlns="http://www.w3.org/2000/svg" xmlns:xlink="http://www.w3.org/1999/xlink" width="500" zoomAndPan="magnify" viewBox="0 0 375 374.999991" height="500" preserveAspectRatio="xMidYMid meet" version="1.0"><defs><clipPath id="9efbafe909"><path d="M 42.234375 58 L 332.484375 58 L 332.484375 317 L 42.234375 317 Z M 42.234375 58 " clip-rule="nonzero"/></clipPath></defs><g clip-path="url(#9efbafe909)"><path fill="#00d8ff" d="M 280.773438 142.121094 C 277.6875 141.0625 274.574219 140.078125 271.4375 139.171875 C 271.964844 137.015625 272.449219 134.886719 272.878906 132.792969 C 279.949219 98.417969 275.328125 70.726562 259.539062 61.609375 C 244.40625 52.867188 219.652344 61.980469 194.65625 83.773438 C 192.191406 85.925781 189.78125 88.136719 187.429688 90.410156 C 185.855469 88.898438 184.253906 87.417969 182.625 85.964844 C 156.425781 62.664062 130.164062 52.84375 114.394531 61.988281 C 99.273438 70.757812 94.796875 96.789062 101.160156 129.367188 C 101.792969 132.59375 102.507812 135.804688 103.304688 138.992188 C 99.585938 140.050781 96 141.175781 92.566406 142.375 C 61.851562 153.101562 42.234375 169.914062 42.234375 187.351562 C 42.234375 205.363281 63.292969 223.425781 95.285156 234.378906 C 97.878906 235.265625 100.496094 236.082031 103.128906 236.835938 C 102.273438 240.273438 101.515625 243.730469 100.851562 247.210938 C 94.785156 279.222656 99.523438 304.640625 114.605469 313.351562 C 130.179688 322.351562 156.324219 313.101562 181.777344 290.8125 C 183.839844 289 185.859375 287.136719 187.832031 285.226562 C 190.378906 287.6875 192.992188 290.078125 195.675781 292.394531 C 220.332031 313.644531 244.683594 322.226562 259.75 313.492188 C 275.3125 304.46875 280.371094 277.160156 273.804688 243.941406 C 273.285156 241.339844 272.707031 238.75 272.0625 236.171875 C 273.898438 235.628906 275.703125 235.066406 277.457031 234.484375 C 310.71875 223.449219 332.359375 205.601562 332.359375 187.351562 C 332.359375 169.851562 312.109375 152.925781 280.773438 142.121094 Z M 273.5625 222.703125 C 271.972656 223.226562 270.347656 223.734375 268.6875 224.226562 C 265.015625 212.585938 260.0625 200.203125 253.996094 187.414062 C 259.785156 174.925781 264.546875 162.703125 268.117188 151.136719 C 271.085938 151.996094 273.964844 152.902344 276.742188 153.859375 C 303.589844 163.117188 319.964844 176.804688 319.964844 187.351562 C 319.964844 198.585938 302.277344 213.167969 273.5625 222.703125 Z M 261.644531 246.351562 C 264.550781 261.042969 264.960938 274.324219 263.039062 284.707031 C 261.3125 294.035156 257.835938 300.257812 253.539062 302.746094 C 244.398438 308.050781 224.84375 301.160156 203.757812 282.980469 C 201.265625 280.828125 198.832031 278.605469 196.460938 276.320312 C 204.636719 267.363281 212.808594 256.953125 220.78125 245.390625 C 234.808594 244.144531 248.058594 242.105469 260.074219 239.320312 C 260.652344 241.652344 261.175781 243.996094 261.644531 246.351562 Z M 141.144531 301.832031 C 132.210938 304.992188 125.097656 305.082031 120.796875 302.597656 C 111.644531 297.3125 107.839844 276.902344 113.03125 249.527344 C 113.644531 246.289062 114.351562 243.074219 115.148438 239.878906 C 127.03125 242.511719 140.183594 244.40625 154.246094 245.546875 C 162.273438 256.863281 170.679688 267.261719 179.148438 276.367188 C 177.347656 278.113281 175.507812 279.8125 173.621094 281.464844 C 162.363281 291.324219 151.085938 298.316406 141.144531 301.832031 Z M 99.296875 222.632812 C 85.148438 217.789062 73.464844 211.492188 65.457031 204.625 C 58.261719 198.453125 54.628906 192.324219 54.628906 187.351562 C 54.628906 176.769531 70.378906 163.273438 96.648438 154.097656 C 99.835938 152.988281 103.171875 151.9375 106.632812 150.949219 C 110.265625 162.78125 115.027344 175.148438 120.773438 187.652344 C 114.953125 200.34375 110.121094 212.910156 106.457031 224.878906 C 104.050781 224.1875 101.664062 223.441406 99.296875 222.632812 Z M 113.324219 126.980469 C 107.871094 99.070312 111.492188 78.015625 120.605469 72.730469 C 130.3125 67.105469 151.773438 75.128906 174.394531 95.25 C 175.871094 96.5625 177.320312 97.90625 178.75 99.273438 C 170.320312 108.339844 161.988281 118.660156 154.035156 129.910156 C 140.386719 131.175781 127.328125 133.210938 115.320312 135.9375 C 114.578125 132.96875 113.914062 129.984375 113.324219 126.984375 Z M 238.46875 157.9375 C 235.632812 153.027344 232.691406 148.183594 229.648438 143.402344 C 238.90625 144.574219 247.773438 146.132812 256.101562 148.035156 C 253.601562 156.0625 250.484375 164.453125 246.816406 173.058594 C 244.136719 167.960938 241.351562 162.921875 238.46875 157.9375 Z M 187.4375 108.144531 C 193.152344 114.347656 198.878906 121.273438 204.507812 128.789062 C 193.085938 128.25 181.644531 128.246094 170.21875 128.78125 C 175.855469 121.335938 181.628906 114.421875 187.4375 108.144531 Z M 136.074219 158.019531 C 133.226562 162.964844 130.496094 167.976562 127.882812 173.046875 C 124.273438 164.472656 121.1875 156.042969 118.664062 147.902344 C 126.941406 146.046875 135.769531 144.53125 144.96875 143.378906 C 141.890625 148.1875 138.921875 153.070312 136.074219 158.019531 Z M 145.230469 232.207031 C 135.730469 231.144531 126.769531 229.707031 118.492188 227.902344 C 121.054688 219.613281 124.210938 211.003906 127.898438 202.246094 C 130.523438 207.324219 133.265625 212.335938 136.121094 217.285156 C 139.0625 222.367188 142.105469 227.351562 145.230469 232.207031 Z M 187.777344 267.433594 C 181.902344 261.085938 176.042969 254.0625 170.320312 246.507812 C 175.878906 246.726562 181.539062 246.835938 187.296875 246.835938 C 193.210938 246.835938 199.054688 246.703125 204.808594 246.449219 C 199.160156 254.136719 193.457031 261.171875 187.777344 267.433594 Z M 246.933594 201.800781 C 250.8125 210.652344 254.082031 219.21875 256.675781 227.363281 C 248.265625 229.285156 239.183594 230.835938 229.613281 231.984375 C 232.679688 227.117188 235.648438 222.1875 238.519531 217.199219 C 241.4375 212.128906 244.242188 206.996094 246.933594 201.800781 Z M 227.785156 210.996094 C 223.390625 218.640625 218.746094 226.144531 213.867188 233.488281 C 205.023438 234.117188 196.160156 234.429688 187.296875 234.421875 C 178.269531 234.421875 169.484375 234.140625 161.027344 233.59375 C 156.019531 226.265625 151.289062 218.75 146.847656 211.0625 C 142.429688 203.417969 138.300781 195.609375 134.46875 187.648438 C 138.289062 179.6875 142.40625 171.871094 146.8125 164.222656 C 151.214844 156.570312 155.90625 149.085938 160.878906 141.789062 C 169.507812 141.136719 178.355469 140.796875 187.296875 140.796875 C 196.277344 140.796875 205.136719 141.140625 213.765625 141.796875 C 218.683594 149.082031 223.347656 156.539062 227.742188 164.15625 C 232.164062 171.789062 236.335938 179.566406 240.25 187.472656 C 236.375 195.460938 232.214844 203.304688 227.785156 210.996094 Z M 253.351562 72.363281 C 263.066406 77.972656 266.84375 100.605469 260.738281 130.285156 C 260.351562 132.179688 259.914062 134.109375 259.4375 136.0625 C 247.398438 133.28125 234.328125 131.210938 220.644531 129.925781 C 212.671875 118.554688 204.410156 108.214844 196.121094 99.265625 C 198.292969 97.167969 200.515625 95.125 202.792969 93.136719 C 224.210938 74.464844 244.230469 67.09375 253.351562 72.363281 Z M 187.296875 161.402344 C 201.605469 161.402344 213.203125 173.019531 213.203125 187.351562 C 213.203125 201.683594 201.605469 213.300781 187.296875 213.300781 C 172.988281 213.300781 161.390625 201.683594 161.390625 187.351562 C 161.390625 173.019531 172.988281 161.402344 187.296875 161.402344 Z M 187.296875 161.402344 " fill-opacity="1" fill-rule="nonzero"/></g></svg>