<svg xmlns="http://www.w3.org/2000/svg" xmlns:xlink="http://www.w3.org/1999/xlink" width="500" zoomAndPan="magnify" viewBox="0 0 375 374.999991" height="500" preserveAspectRatio="xMidYMid meet" version="1.0"><defs><clipPath id="06769ef89a"><path d="M 42.507812 40.003906 L 337.257812 40.003906 L 337.257812 334 L 42.507812 334 Z M 42.507812 40.003906 " clip-rule="nonzero"/></clipPath></defs><g clip-path="url(#06769ef89a)"><path fill="#1a54bf" d="M 326.785156 71.792969 L 266.152344 42.625 C 262.722656 40.960938 258.859375 40.410156 255.101562 41.046875 C 251.34375 41.683594 247.882812 43.472656 245.1875 46.167969 L 129.050781 152.136719 L 78.441406 113.757812 C 76.160156 112.015625 73.34375 111.125 70.476562 111.25 C 67.609375 111.371094 64.875 112.496094 62.753906 114.429688 L 46.542969 129.203125 C 45.277344 130.347656 44.261719 131.746094 43.566406 133.304688 C 42.875 134.863281 42.511719 136.554688 42.507812 138.261719 C 42.503906 139.96875 42.855469 141.65625 43.542969 143.222656 C 44.230469 144.785156 45.238281 146.1875 46.5 147.339844 L 90.394531 187.394531 L 46.5 227.453125 C 45.238281 228.601562 44.230469 230.003906 43.542969 231.570312 C 42.855469 233.132812 42.503906 234.820312 42.507812 236.53125 C 42.511719 238.238281 42.875 239.925781 43.566406 241.484375 C 44.261719 243.046875 45.277344 244.441406 46.542969 245.585938 L 62.753906 260.359375 C 64.875 262.292969 67.609375 263.417969 70.476562 263.539062 C 73.34375 263.664062 76.160156 262.777344 78.441406 261.035156 L 129.050781 222.605469 L 245.246094 328.621094 C 247.925781 331.316406 251.386719 333.109375 255.132812 333.742188 C 258.886719 334.378906 262.738281 333.828125 266.160156 332.167969 L 326.847656 302.949219 C 329.976562 301.449219 332.609375 299.09375 334.453125 296.15625 C 336.292969 293.21875 337.265625 289.820312 337.257812 286.355469 L 337.257812 88.371094 C 337.257812 81.316406 333.179688 74.84375 326.804688 71.773438 Z M 263.601562 254.328125 L 175.425781 187.40625 L 263.601562 120.480469 Z M 263.601562 254.328125 " fill-opacity="1" fill-rule="nonzero"/></g></svg>